<?xml version="1.0" encoding="UTF-8"?>
<svg xmlns="http://www.w3.org/2000/svg" xmlns:xlink="http://www.w3.org/1999/xlink" version="1.1">
	<style type="text/css">
		svg{
			background: black;
			width: 610px;
			height: 610px;
		}
		path{
			fill: none;
			stroke: white;
			stroke-linecap: round;
			stroke-linejoin: round;
			stroke-width: 2.5;
			stroke-opacity: 0.7;
		}
		path.aux{
			stroke-dasharray: 10;
			stroke-linecap: square;
		}
		text{
			font-family: sans-serif;
			fill: white;
			stroke: none;
		}
		text.back{
			fill: none;
			stroke: black;
			stroke-width: 3;
		}
	</style>
	<g style="transform: translate(0px,0px)">
		<path d="M 575.4728676623531 295.6580258572561 C 575.4728676623531 445.4362375419903 454.05363684913146 566.8554683552114 304.27542516439667 566.8554683552114 C 154.4972134796618 566.8554683552114 33.07798266644022 445.4362375419903 33.07798266644022 295.6580258572561 C 33.07798266644022 145.8798141725219 154.4972134796618 24.460583359300813 304.27542516439667 24.460583359300813 C 454.05363684913146 24.460583359300813 575.4728676623531 145.8798141725219 575.4728676623531 295.6580258572561 Z"/>
		<path d="M 575.4728676623531 295.6580258572561 C 575.4728676623531 198.76851158163885 523.7829271363948 109.23890835046592 439.8741464133749 60.79415121265728"/>
		<path d="M 439.87414641337483 60.79415121265731 C 355.96536569035493 109.23890835046595 304.27542516439667 198.76851158163885 304.27542516439667 295.65802585725606 C 304.27542516439667 392.54754013287334 355.9653656903549 482.07714336404626 439.8741464133748 530.5219005018549"/>
		<path d="M 379.2325547384228 174.3748425073524 C 333.29387372513986 197.34418301399378 304.27542516439667 244.29701908606654 304.27542516439667 295.6580258572561"/>
		<path d="M 144.86956800466186 76.25468604538764 C 159.95287353638275 122.67632716654924 194.52295944427894 160.21671584835678 239.54685207845995 179.0667546337524 C 284.570744712641 197.916793419148 335.57502507725025 196.20360733793854 379.2325547384226 174.37484250735247"/>
		<path d="M 69.41155051979686 160.0593046082785 C 117.8563076576057 243.96808533129808 207.38591088877894 295.65802585725606 304.2754251643966 295.6580258572561"/>
		<path d="M 304.27542516439667 24.460583359300813 L 304.27542516439667 566.8554683552114"/>
		<path d="M 575.4728676623531 295.6580258572561 L 33.07798266644022 295.6580258572561"/>
		<path d="M 439.8741464133749 60.79415121265728 L 439.8741464133749 530.5219005018549"/>
		<path d="M 304.27542516439667 24.460583359300813 L 439.8741464133749 295.6580258572561"/>
		<path d="M 304.27542516439667 295.6580258572561 L 439.8741464133749 295.6580258572561"/>
		<path class="aux" d="M 144.86956800466186 76.25468604538767 L 304.27542516439667 76.25468604538767"/>
		<path class="aux" d="M 379.2325547384228 174.3748425073524 L 379.2325547384228 295.6580258572561"/>
		<path class="aux" d="M 144.86956800466186 76.25468604538767 L 304.27542516439667 24.460583359300813"/>
		<path class="aux" d="M 144.86956800466186 76.25468604538767 L 304.27542516439667 295.6580258572561"/>
		<path class="aux" d="M 224.57249658452926 50.35763470234426 L 304.27542516439667 295.6580258572561"/>
		<path class="aux" d="M 69.41155051979683 160.05930460827847 L 304.27542516439667 295.6580258572561"/>
		<path class="aux" d="M 69.41155051979683 160.05930460827847 L 304.27542516439667 160.05930460827847"/>
		<path class="aux" d="M 439.8741464133749 60.79415121265728 L 304.27542516439667 295.6580258572561"/>
		<text class="back" x="231" y="46" >H</text>
		<text x="231" y="46">H</text>
		<text class="back" x="310" y="82" >I</text>
		<text x="310" y="82">I</text>
		<text class="back" x="308" y="294">O</text>
		<text x="308" y="294">O</text>
		<text class="back" x="308" y="22">A</text>
		<text x="308" y="22">A</text>
		<text class="back" x="579" y="294">B</text>
		<text x="579" y="294">B</text>
		<text class="back" x="444" y="294">M</text>
		<text x="444" y="294">M</text>
		<text class="back" x="444" y="59">C</text>
		<text x="444" y="59">C</text>
		<text class="back" x="444" y="529">D</text>
		<text x="444" y="529">D</text>
		<text class="back" x="383" y="172">E</text>
		<text x="383" y="172">E</text>
		<text class="back" x="149" y="74">F</text>
		<text x="149" y="74">F</text>
		<text class="back" x="73" y="158">G</text>
		<text x="73" y="158">G</text>
		<text class="back" x="383" y="294">N</text>
		<text x="383" y="294">N</text>
		<text class="back" x="308" y="158">P</text>
		<text x="308" y="158">P</text>
	</g>
</svg>

