<svg width="288" height="288" xmlns="http://www.w3.org/2000/svg" xmlns:xlink="http://www.w3.org/1999/xlink" version="1.1">
   <style type="text/css">
      path{
         fill: none;
         stroke: white;
         stroke-linecap: round;
         stroke-linejoin: round;
         stroke-width: 2.5;
         stroke-opacity: 0.7;
      }
      path.aux{
         stroke-dasharray: 10;
         stroke-linecap: square;
      }
      text{
         font-family: sans-serif;
         fill: white;
         stroke: none;
      }
      text.back{
         fill: none;
         stroke: black;
         stroke-width: 3;
      }
   </style>
   <g style="transform: translate(-32px,-10px);">
      <path d="M 304.27542516439667 24.460583359300813 C 168.18010563158035 24.460583359300813 53.16211821966806 125.32865114034468 35.39811438207835 260.25965634818164 C 17.63411054448858 395.1906615560186 102.62637808901943 522.3905789451699 234.08436206282983 557.6146395895757 C 365.54234603664025 592.8387002339815 502.74776755002347 525.1764741879597 554.8291915576652 399.44079400100765 C 606.910615565307 273.7051138140554 557.7361504649541 128.84181097906486 439.8741464133746 60.79415121265711"/>
      <path d="M 33.07798266644022 295.6580258572561 L 304.27542516439667 295.6580258572561"/>
      <path d="M 69.41155051979686 160.0593046082785 C 117.8563076576057 243.96808533129808 207.38591088877894 295.65802585725606 304.2754251643966 295.6580258572561"/>
      <path d="M 304.27542516439667 24.460583359300813 L 304.27542516439667 566.8554683552114"/>
      <path class="aux" d="M 69.41155051979683 160.05930460827847 L 304.27542516439667 295.6580258572561"/>
      <path class="aux" d="M 69.41155051979683 160.05930460827847 L 304.27542516439667 160.05930460827847"/>
      <text class="back" x="308" y="294">O</text>
      <text x="308" y="294">O</text>
      <text class="back" x="308" y="22">A</text>
      <text x="308" y="22">A</text>
      <text class="back" x="73" y="158">G</text>
      <text xmlns="http://www.w3.org/2000/svg" x="73" y="158">G</text>
      <text class="back" x="308" y="158">P</text>
      <text x="308" y="158">P</text>
   </g>
</svg>
